<svg width="88" height="105" viewBox="0 0 88 105" fill="none" xmlns="http://www.w3.org/2000/svg">
<path d="M30.9991 81L30.5 104.5C17.8336 88.3334 -5 55.9 1 55.5C8.5 55 19 54 18.5 42C18 30 6.33333 29.3334 0 30L15 24.0001C20.833 9.66675 30 -7.00089 30.5 4.99961C31 17.0001 41.5 21.0626 48.5 18C55.5 14.9374 55.5 7.50015 55.9991 1.50009C56.4981 -4.49996 96 28.4996 86.5 29.5C77 30.5004 69 32.5 69 42C69 51.5 76 55 82.9991 55V104.5H56.5C56.5 99.6667 56.3726 88.4885 55.9991 82.5001C55.6255 76.5118 52.5 69 42.9991 69C36 69 30.9991 75.5 30.9991 81Z" fill="#A6BDB1"/>
</svg>
